<svg width="38" height="38" viewBox="0 0 38 38" fill="none" xmlns="http://www.w3.org/2000/svg">
<mask id="mask0_945_1130" style="mask-type:alpha" maskUnits="userSpaceOnUse" x="9" y="9" width="20" height="20">
<rect x="9" y="9" width="20" height="20" fill="#D9D9D9"/>
</mask>
<g mask="url(#mask0_945_1130)">
<path d="M19 27C17.9028 27 16.8681 26.7917 15.8958 26.375C14.9236 25.9583 14.0729 25.3854 13.3438 24.6562C12.6146 23.9271 12.0417 23.0764 11.625 22.1042C11.2083 21.1319 11 20.0972 11 19C11 17.8889 11.2083 16.8507 11.625 15.8854C12.0417 14.9201 12.6146 14.0729 13.3438 13.3438C14.0729 12.6146 14.9236 12.0417 15.8958 11.625C16.8681 11.2083 17.9028 11 19 11C20.1111 11 21.1493 11.2083 22.1146 11.625C23.0799 12.0417 23.9271 12.6146 24.6562 13.3438C25.3854 14.0729 25.9583 14.9201 26.375 15.8854C26.7917 16.8507 27 17.8889 27 19C27 20.0972 26.7917 21.1319 26.375 22.1042C25.9583 23.0764 25.3854 23.9271 24.6562 24.6562C23.9271 25.3854 23.0799 25.9583 22.1146 26.375C21.1493 26.7917 20.1111 27 19 27ZM22.7292 17.1667L23.875 16.8333L24.3958 15.3958C23.9792 14.7847 23.4861 14.2604 22.9167 13.8229C22.3472 13.3854 21.7083 13.0486 21 12.8125L19.75 13.7083V15.0625L22.7292 17.1667ZM15.25 17.1458L18.25 15.0625V13.7083L17 12.8125C16.2917 13.0486 15.6493 13.3819 15.0729 13.8125C14.4965 14.2431 14.0069 14.7639 13.6042 15.375L14.125 16.8333L15.25 17.1458ZM13.7083 22.75L15.2292 22.7917L15.9167 21.875L14.8125 18.5833L13.7083 18.2708L12.5 19.2083C12.5278 19.8472 12.6424 20.4653 12.8438 21.0625C13.0451 21.6597 13.3333 22.2222 13.7083 22.75ZM19 25.5C19.3611 25.5 19.7153 25.4688 20.0625 25.4062C20.4097 25.3438 20.7569 25.2569 21.1042 25.1458L21.5625 23.6875L20.8542 22.75H17.125L16.4375 23.6875L16.8958 25.1458C17.2431 25.2569 17.5903 25.3438 17.9375 25.4062C18.2847 25.4688 18.6389 25.5 19 25.5ZM17.2917 21.25H20.7083L21.7083 18.2708L19 16.375L16.2917 18.2708L17.2917 21.25ZM24.2917 22.7708C24.6667 22.2431 24.9549 21.6806 25.1562 21.0833C25.3576 20.4861 25.4722 19.8681 25.5 19.2292L24.2917 18.2708L23.1875 18.5833L22.0833 21.875L22.7708 22.7917L24.2917 22.7708Z" fill="#181028"/>
</g>
<rect x="0.5" y="0.5" width="37" height="37" rx="18.5" stroke="#181028" stroke-opacity="0.5"/>
</svg>
