<svg width="38" height="38" viewBox="0 0 38 38" fill="none" xmlns="http://www.w3.org/2000/svg">
<path d="M20.4042 17.4767C19.6229 16.8518 18.5632 16.5008 17.4584 16.5008C16.3535 16.5008 15.2939 16.8518 14.5126 17.4767L10.3459 20.8101C9.94793 21.1175 9.6305 21.4854 9.41213 21.892C9.19376 22.2987 9.07882 22.7361 9.07401 23.1787C9.0692 23.6213 9.17463 24.0602 9.38413 24.4699C9.59363 24.8796 9.90302 25.2517 10.2942 25.5647C10.6855 25.8777 11.1507 26.1252 11.6627 26.2928C12.1748 26.4604 12.7235 26.5447 13.2767 26.5409C13.83 26.537 14.3767 26.4451 14.8851 26.2704C15.3934 26.0957 15.8532 25.8418 16.2376 25.5234L17.3855 24.6059M16.5959 20.5234C17.3773 21.1483 18.4369 21.4993 19.5417 21.4993C20.6466 21.4993 21.7062 21.1483 22.4876 20.5234L26.6542 17.1901C27.4132 16.5614 27.8332 15.7194 27.8237 14.8454C27.8142 13.9714 27.376 13.1354 26.6035 12.5173C25.8309 11.8993 24.7859 11.5487 23.6934 11.5411C22.6009 11.5335 21.5484 11.8695 20.7626 12.4767L19.6167 13.3934" stroke="#181028" stroke-width="2" stroke-linecap="round" stroke-linejoin="round"/>
<rect x="0.5" y="0.5" width="37" height="37" rx="18.5" stroke="#181028" stroke-opacity="0.5"/>
</svg>
