<svg width="50" height="50" viewBox="0 0 50 50" fill="none" xmlns="http://www.w3.org/2000/svg">
<path d="M26.828 23.1717C26.0778 22.4218 25.0606 22.0005 24 22.0005C22.9393 22.0005 21.9221 22.4218 21.172 23.1717L17.172 27.1717C16.7899 27.5407 16.4852 27.982 16.2756 28.4701C16.0659 28.9581 15.9556 29.483 15.951 30.0141C15.9463 30.5452 16.0475 31.0719 16.2487 31.5635C16.4498 32.0551 16.7468 32.5017 17.1224 32.8773C17.4979 33.2528 17.9446 33.5498 18.4361 33.751C18.9277 33.9521 19.4544 34.0533 19.9856 34.0487C20.5167 34.0441 21.0416 33.9337 21.5296 33.7241C22.0176 33.5144 22.459 33.2097 22.828 32.8277L23.93 31.7267M23.172 26.8277C23.9221 27.5776 24.9393 27.9988 26 27.9988C27.0606 27.9988 28.0778 27.5776 28.828 26.8277L32.828 22.8277C33.5566 22.0733 33.9598 21.0629 33.9507 20.0141C33.9415 18.9653 33.5209 17.962 32.7792 17.2204C32.0376 16.4788 31.0344 16.0581 29.9856 16.049C28.9368 16.0399 27.9264 16.443 27.172 17.1717L26.072 18.2717" stroke="#7FFFD4" stroke-width="2" stroke-linecap="round" stroke-linejoin="round"/>
<rect x="0.5" y="0.5" width="49" height="49" rx="24.5" stroke="#7FFFD4" stroke-opacity="0.5"/>
</svg>
