<svg width="38" height="38" viewBox="0 0 38 38" fill="none" xmlns="http://www.w3.org/2000/svg">
<mask id="mask0_945_1130" style="mask-type:alpha" maskUnits="userSpaceOnUse" x="9" y="9" width="20" height="20">
<rect x="9" y="9" width="20" height="20" fill="#D9D9D9"/>
</mask>
<g mask="url(#mask0_945_1130)">
<path d="M18.25 13V10H19.75V13H18.25ZM23.7708 15.3333L22.6458 14.25L24.8125 12.125L25.8958 13.1667L23.7708 15.3333ZM25 19.75V18.25H28V19.75H25ZM18.25 28V25H19.75V28H18.25ZM14.2292 15.2917L12.0625 13.1667L13.1875 12.125L15.2917 14.2292L14.2292 15.2917ZM24.8333 25.9375L22.7292 23.75L23.7708 22.7083L25.9375 24.7917L24.8333 25.9375ZM10 19.75V18.25H13V19.75H10ZM13.1667 25.9375L12.1042 24.8333L14.2292 22.75L14.75 23.25L15.25 23.7708L13.1667 25.9375ZM19 24C17.6111 24 16.4306 23.5139 15.4583 22.5417C14.4861 21.5694 14 20.3889 14 19C14 17.6111 14.4861 16.4306 15.4583 15.4583C16.4306 14.4861 17.6111 14 19 14C20.3889 14 21.5694 14.4861 22.5417 15.4583C23.5139 16.4306 24 17.6111 24 19C24 20.3889 23.5139 21.5694 22.5417 22.5417C21.5694 23.5139 20.3889 24 19 24ZM19 22.5C19.9722 22.5 20.7986 22.1597 21.4792 21.4792C22.1597 20.7986 22.5 19.9722 22.5 19C22.5 18.0278 22.1597 17.2014 21.4792 16.5208C20.7986 15.8403 19.9722 15.5 19 15.5C18.0278 15.5 17.2014 15.8403 16.5208 16.5208C15.8403 17.2014 15.5 18.0278 15.5 19C15.5 19.9722 15.8403 20.7986 16.5208 21.4792C17.2014 22.1597 18.0278 22.5 19 22.5Z" fill="#181028"/>
</g>
<rect x="0.5" y="0.5" width="37" height="37" rx="18.5" stroke="#181028" stroke-opacity="0.5"/>
</svg>
